<?xml version="1.0" encoding="utf-8"?>
<!-- Generator: Adobe Illustrator 23.0.2, SVG Export Plug-In . SVG Version: 6.00 Build 0)  -->
<svg version="1.1" id="Layer_1" xmlns="http://www.w3.org/2000/svg" xmlns:xlink="http://www.w3.org/1999/xlink" x="0px" y="0px"
	 viewBox="0 0 487.1 441.7" style="enable-background:new 0 0 487.1 441.7;" xml:space="preserve">
<style type="text/css">
	.st0{fill:#6C464E;}
</style>
<g>
	<path class="st0" d="M363.3,0c-30.3,0-53.6,6.7-73.5,21.1c-16.5,12-31,29.4-46.3,56.1c-15.4-26.7-29.8-44.1-46.3-56.1
		C177.4,6.7,154,0,123.8,0C55.5,0,0,50.4,0,112.4C0,162,24.8,216,75.8,277.6c45.1,54.4,106.1,109.7,165.1,163.1l2.7-3l-2.7,3
		c0.8,0.7,1.7,1,2.7,1c1,0,1.9-0.3,2.7-1c59-53.4,120-108.6,165.1-163.1c51-61.6,75.8-115.6,75.8-165.2C487.1,50.4,431.5,0,363.3,0z
		"/>
</g>
</svg>
